<svg xmlns="http://www.w3.org/2000/svg" width="4334.561" height="1032.951" viewBox="0 0 4334.561 1032.951">
  <g id="Isotipo_Orange" data-name="Isotipo Orange" transform="translate(-1027.719 -783.524)">
    <path id="Trazado_12" data-name="Trazado 12" d="M1033.136,728.291l-119.7,211.274,141.516,353.646h62.939c2.931,59.2,18.746,112.509,50.566,167.11,107.867,184.767-87.275,218.313-103.449,118.089-8.141-50.373-39.209-107.693-98.2-102.592,0,0,16.146,32.444,10.407,71.822-24.338,166.422,163.438,273.025,290.429,176.646,61.268-46.585,97.776-134.569,74.214-205.006-26.02-77.571-108.575-134.241-93.64-226.069h57.587l141.517-353.646-5.853-10.311h31.954q175.832,0,260.832,82.016,84.981,81.993,84.98,234.221t-84.98,232.02q-84.961,79.8-243.093,79.805h-97.924c3.029,76.982-38.519,156.345-98.836,202.207l-2.336,1.719h175.461q295.52,0,439.629-140.387,144.093-140.373,144.076-381.263,0-240.879-147.757-376.093-147.795-135.187-424.135-135.208h-446.2Zm229.228,249.656a81.984,81.984,0,1,1-81.983-81.983,82.018,82.018,0,0,1,81.983,81.983Z" transform="translate(114.28 55.233)" fill="#dd6920" fill-rule="evenodd"/>
    <text id="THE_DOCK" data-name="THE DOCK" transform="translate(2323.28 1318.233)" fill="#dd6920" font-size="500" font-family="FiraSans-Bold, Fira Sans" font-weight="700" letter-spacing="0.2em"><tspan x="0" y="0">THE DOCK</tspan></text>
    <text id="GENESIS_STARTER_THEME" data-name="GENESIS STARTER THEME" transform="translate(2323.28 1638.233)" fill="#dd6920" font-size="200" font-family="FiraSans-SemiBold, Fira Sans" font-weight="600" letter-spacing="0.2em"><tspan x="0" y="0">GENESIS STARTER THEME</tspan></text>
  </g>
</svg>
