<?xml version="1.0" encoding="iso-8859-1"?>
<!-- Generator: Adobe Illustrator 19.0.0, SVG Export Plug-In . SVG Version: 6.00 Build 0)  -->
<svg version="1.1" id="Layer_1" xmlns="http://www.w3.org/2000/svg" xmlns:xlink="http://www.w3.org/1999/xlink" x="0px" y="0px"
	 viewBox="0 0 508.004 508.004" style="enable-background:new 0 0 508.004 508.004;" xml:space="preserve">
<g>
	<g>
		<path d="M378.76,0.002H129.18C57.948,0.002,0,57.966,0,129.218V378.79c0,71.248,57.948,129.212,129.18,129.212h249.576
			c71.268,0,129.244-57.964,129.248-129.208V129.218C508.004,57.966,450.024,0.002,378.76,0.002z M500.004,378.794
			c0,66.836-54.392,121.212-121.244,121.212H129.18C62.36,500.006,8,445.63,8,378.794V129.218C8,62.378,62.36,8.002,129.18,8.002
			h249.576c66.852,0,121.244,54.376,121.248,121.216V378.794z"/>
	</g>
</g>
<g>
	<g>
		<path d="M480.192,253.97c-2.212,0-4,1.792-4,4v112.02c0,57.568-48.632,106.204-106.2,106.204H138.008
			c-57.568,0-106.2-48.636-106.2-106.204V138.01c0-57.568,48.632-106.2,106.2-106.2H369.08c2.212,0,4-1.792,4-4s-1.788-4-4-4
			H138.008c-61.904,0-114.2,52.296-114.2,114.2v231.98c0,61.908,52.296,114.204,114.2,114.204h231.984
			c61.904,0,114.2-52.296,114.2-114.204V257.97C484.192,255.762,482.404,253.97,480.192,253.97z"/>
	</g>
</g>
<g>
	<g>
		<path d="M449.808,58.19c-21.848-21.848-51.276-34.38-80.732-34.38c-2.212,0-4,1.792-4,4s1.788,4,4,4
			c27.352,0,54.716,11.676,75.076,32.036c0.78,0.78,1.804,1.172,2.828,1.172s2.048-0.392,2.828-1.172
			C451.372,62.282,451.372,59.754,449.808,58.19z"/>
	</g>
</g>
<g>
	<g>
		<path d="M480.192,166.67c-2.212,0-4,1.792-4,4v59.524c0,2.208,1.788,4,4,4c2.212,0,4-1.792,4-4V170.67
			C484.192,168.462,482.404,166.67,480.192,166.67z"/>
	</g>
</g>
<g>
	<g>
		<path d="M304.228,385.094l-12.072-33.064c-10.552-28.904-21.024-57.6-31.52-86.308c-0.708-1.924-2.712-2.82-4.992-2.58
			c-1.568,0.144-2.9,1.196-3.408,2.68c-11.8,34.348-23.62,68.68-35.504,103.204l-6.3,18.3c-0.356,1.036-0.272,2.176,0.236,3.148
			c0.508,0.976,1.392,1.7,2.448,2c13.764,3.924,27.588,5.912,41.084,5.916c15.824,0,31.828-2.744,47.572-8.144
			c1.016-0.348,1.848-1.092,2.308-2.06C304.544,387.218,304.596,386.102,304.228,385.094z M219.388,385.882l4.908-14.26
			c10.796-31.352,21.536-62.56,32.26-93.76c9.348,25.576,18.684,51.156,28.084,76.908l10.652,29.18
			C270.228,391.798,245.048,392.446,219.388,385.882z"/>
	</g>
</g>
<g>
	<g>
		<path d="M196.424,378.126c-20.936-57.388-41.892-114.796-62.848-172.192l-3.56-9.752c-0.58-1.576-2.376-2.636-4.056-2.636
			l-0.572-0.012c-1.612,0-3.068,0.968-3.692,2.456c-16.148,38.596-16.296,77.168-0.436,114.648
			c13.564,32.024,36.732,56.552,68.868,72.904c0.496,0.252,1.072,0.368,1.66,0.368c0.944,0,1.924-0.3,2.668-0.804l0.472-0.308
			C196.436,381.762,197.048,379.842,196.424,378.126z M128.632,307.522c-13.8-32.62-14.768-66.128-2.9-99.752l0.332,0.908
			c19.872,54.44,39.748,108.888,59.608,163.316C159.436,356.662,140.272,335.01,128.632,307.522z"/>
	</g>
</g>
<g>
	<g>
		<path d="M337.604,201.238c-1.372-2.32-2.752-4.644-4.096-6.984c-3.26-5.688-5.2-11.02-5.924-16.288
			c-1.5-11.176,5.956-21.36,16.968-23.184c0.796-0.128,1.584-0.22,2.584-0.332l2.256-0.268c1.58-0.192,2.888-1.308,3.34-2.832
			c0.452-1.528-0.04-3.172-1.26-4.196c-40.42-34.004-85.516-44.968-134.176-32.648c-34.368,8.688-62.624,28.964-83.984,60.264
			c-0.836,1.224-0.928,2.812-0.232,4.124c0.692,1.312,2.052,2.132,3.536,2.132c2.424,0,4.748,0.02,7.008,0.04
			c4.832,0.04,9.344,0.08,13.92-0.08c5.04-0.192,10.08-0.516,15.124-0.844c3.272-0.212,6.548-0.424,9.836-0.596l0.516-0.016
			c1.936,0,1.992,0.5,2.068,1.176c0.148,1.372,0.188,1.74-2.108,2.132c-1.108,0.176-2.188,0.252-3.416,0.34
			c-3.82,0.34-7.6,0.664-11.976,1.032c-1.228,0.104-2.336,0.76-3.012,1.788c-0.672,1.028-0.84,2.304-0.448,3.472l16.1,47.912
			c11.62,34.564,23.172,68.948,34.736,103.312c0.392,1.168,1.304,2.088,2.468,2.496c0.428,0.152,0.88,0.228,1.324,0.228
			c0.76,0,1.512-0.216,2.168-0.64c1.072-0.692,2.372-1.736,2.784-3.392c9.852-29.436,19.66-58.856,29.384-88.284
			c0.976-2.86,0.036-5.94-0.392-7.08c-3.148-8.736-6.332-17.464-9.516-26.192c-3.432-9.4-6.86-18.8-10.232-28.176
			c-1.752-5.028-5.48-5.768-8.144-5.892c-3.264-0.136-6.868-0.488-11.372-1.116c-1.04-0.14-1.308-0.344-1.2-1.496
			c0.132-1.344,0.648-1.6,1.804-1.628c0.636,0,1.28,0.064,1.916,0.12c0.684,0.056,1.364,0.116,2.052,0.136
			c4.08,0.104,8.168,0.224,12.252,0.344c11.012,0.324,22.4,0.656,33.62,0.7h0.624c5.3,0,10.632-0.388,15.788-0.764
			c2.704-0.196,5.408-0.392,8.368-0.544c1.384,0,1.7,0.512,1.784,1.456c0.056,0.568,0.132,1.424-1.68,1.752
			c-1.284,0.248-2.616,0.356-3.944,0.46c-2.84,0.268-5.676,0.512-8.664,0.772l-3.344,0.292c-1.22,0.108-2.324,0.768-2.996,1.792
			c-0.672,1.024-0.836,2.3-0.444,3.464c8.196,24.408,16.372,48.708,24.56,73.044c8.696,25.836,17.404,51.716,26.16,77.808
			c0.536,1.592,2.008,2.68,3.684,2.728c0.036,0,0.072,0,0.108,0c1.636,0,3.116-0.996,3.72-2.524l0.464-1.124
			c0.244-0.568,0.364-0.9,0.42-1.108l7.724-25.704c4.448-14.78,8.892-29.564,13.3-44.364c5.82-19.672,3.884-38.652-5.776-56.428
			C341.76,208.242,339.684,204.738,337.604,201.238z M341.836,265.982c-4.4,14.784-8.848,29.564-13.292,44.336l-4.784,15.856
			c-7.44-22.16-14.848-44.184-22.252-66.18c-7.648-22.732-15.284-45.432-22.936-68.22c2.376-0.204,4.672-0.408,6.924-0.62
			c1.556-0.124,3.184-0.272,4.724-0.564c5.384-0.964,8.676-5.128,8.192-10.356c-0.484-5.216-4.404-8.716-9.752-8.716l-0.672,0.016
			c-2.76,0.144-5.524,0.348-8.276,0.548c-5.012,0.364-10.196,0.744-15.208,0.744h-0.584c-11.124-0.044-22.464-0.376-33.424-0.696
			c-4.096-0.12-8.188-0.24-12.264-0.344c-0.516-0.016-1.044-0.064-1.576-0.112c-0.872-0.076-1.572-0.136-2.996-0.144
			c-5.188,0.128-8.872,3.6-9.388,8.86c-0.5,5.38,2.756,9.476,8.084,10.188c4.744,0.656,8.592,1.032,12.1,1.18
			c0.432,0.02,0.68,0.064,0.736,0.048c0.048,0.084,0.128,0.248,0.22,0.524c3.388,9.42,6.824,18.836,10.256,28.248
			c3.18,8.72,6.364,17.436,9.524,26.212c0.312,0.832,0.36,1.572,0.316,1.772c-8.728,26.408-17.512,52.784-26.396,79.372
			c-10.416-30.964-20.832-61.956-31.296-93.096l-14.48-43.084c2.388-0.208,4.648-0.404,6.912-0.604
			c1.348-0.096,2.656-0.196,4.032-0.416c6.188-1.052,9.38-5.016,8.752-10.892c-0.6-5.416-5.044-8.604-10.976-8.284
			c-3.304,0.176-6.608,0.388-9.912,0.6c-4.976,0.32-9.952,0.64-14.9,0.832c-4.212,0.144-8.44,0.116-12.9,0.08
			c19.784-26.432,44.352-43.084,74.9-50.808c12.324-3.116,24.504-4.7,36.204-4.7c29.536,0,57.76,10.156,84.012,30.216
			c-13.204,4.052-21.724,17.08-19.816,31.268c0.868,6.316,3.132,12.596,6.916,19.192c1.364,2.376,2.756,4.728,4.156,7.084
			c2.036,3.428,4.072,6.856,5.992,10.348C345.304,231.494,347.032,248.422,341.836,265.982z"/>
	</g>
</g>
<g>
	<g>
		<path d="M412.772,262.95l-0.012-17.064c0-4.732-0.424-9.612-1.304-14.932c-8.988-54.296-38.144-94.612-86.668-119.832
			c-17.78-9.22-37.212-14.412-59.408-15.876c-0.424-0.028-0.848-0.036-1.268-0.036l-18.224,0.028c-4.788,0-9.788,0.44-15.292,1.352
			c-53.516,8.932-93.488,37.6-118.8,85.208c-9.644,18.188-15.06,38.08-16.56,60.772c-0.064,0.82-0.044,1.624-0.016,2.416
			l0.02,17.128c0,4.736,0.42,9.62,1.292,14.932c8.944,54.152,38.004,94.436,86.38,119.736c17.84,9.28,37.368,14.512,59.732,15.988
			c0.36,0.024,0.724,0.032,1.088,0.032l18.38-0.04c4.864,0,9.76-0.428,14.944-1.312c53.916-8.88,94.088-37.748,119.404-85.796
			c9.468-17.968,14.792-37.684,16.264-60.192C412.8,264.626,412.788,263.79,412.772,262.95z M404.752,264.854
			c-1.408,21.448-6.436,40.116-15.368,57.072c-24.424,46.356-61.588,73.056-113.644,81.632c-4.752,0.808-9.208,1.204-13.624,1.204
			h-16.224l-2.16,0.04l-0.592-0.016c-21.204-1.4-39.696-6.34-56.524-15.092c-46.672-24.412-73.56-61.688-82.188-113.944
			c-0.8-4.876-1.188-9.336-1.188-13.636V245.89l-0.024-1.168c-0.02-0.508-0.044-1.02,0-1.584
			c1.424-21.584,6.544-40.42,15.644-57.588c24.424-45.928,61.404-72.444,113.052-81.064c5.06-0.836,9.632-1.244,13.98-1.244v-0.012
			h16.22l2-0.028c0.248,0,0.5,0.004,0.748,0.02c21.072,1.388,39.472,6.292,56.248,14.992c46.812,24.332,73.784,61.636,82.46,114.04
			c0.804,4.88,1.196,9.34,1.196,13.628l0.012,17.224C404.788,263.666,404.808,264.218,404.752,264.854z"/>
	</g>
</g>
<g>
	<g>
		<path d="M381.02,186.094c-0.896-1.66-2.844-2.468-4.632-1.94c-1.808,0.524-3.008,2.24-2.88,4.116
			c0.748,10.84,0.416,20.62-1.016,29.892c-0.336,2.184,1.16,4.228,3.34,4.564c2.184,0.328,4.232-1.156,4.568-3.34
			c0.64-4.152,1.076-8.392,1.308-12.764c8.244,21.4,10.676,43.708,7.232,66.54c-5.8,38.624-24.996,69.776-57.1,92.74l19.404-56.252
			c0.724-2.084-0.388-4.36-2.476-5.084c-2.068-0.724-4.364,0.388-5.084,2.476l-20.592,59.688c-0.62,1.74-1.2,3.492-1.78,5.24
			l-0.416,1.252c-0.604,1.812,0.16,3.792,1.812,4.736l0.98,0.52c0.584,0.304,1.224,0.456,1.86,0.456c0.74,0,1.48-0.204,2.128-0.612
			c39.248-24.696,62.524-59.676,69.176-103.972C401.464,243.75,396.14,214.058,381.02,186.094z"/>
	</g>
</g>
<g>
</g>
<g>
</g>
<g>
</g>
<g>
</g>
<g>
</g>
<g>
</g>
<g>
</g>
<g>
</g>
<g>
</g>
<g>
</g>
<g>
</g>
<g>
</g>
<g>
</g>
<g>
</g>
<g>
</g>
</svg>
